<?xml version="1.0" encoding="UTF-8"?>
<svg width="46px" height="46px" viewBox="0 0 46 46" version="1.1" xmlns="http://www.w3.org/2000/svg" xmlns:xlink="http://www.w3.org/1999/xlink">
    <!-- Generator: Sketch 41.2 (35397) - http://www.bohemiancoding.com/sketch -->
    <title>Monogram</title>
    <desc>Created with Sketch.</desc>
    <defs></defs>
    <g id="Desktop" stroke="none" stroke-width="1" fill="none" fill-rule="evenodd">
        <g id="Logged-Out" transform="translate(-697.000000, -148.000000)" fill="#FFFFFF">
            <g id="Header" transform="translate(0.000000, 74.000000)">
                <g id="TC-Regulars-Treatment" transform="translate(585.000000, 74.000000)">
                    <g id="Monogram" transform="translate(112.000000, 0.000000)">
                        <path d="M21.3510186,13.9197939 L21.3510186,16.7596086 C16.6643388,17.4751163 12.8316558,21.0917242 12.8316558,25.4345647 C12.8316558,29.7743409 16.6643388,33.3886505 21.3510186,34.1033921 L21.3510186,37.0542868 L24.4754718,37.0542868 L24.4754718,34.1723383 C27.2107039,33.8720396 30.1352044,32.460942 31.8157237,30.2669227 L29.4933712,28.4582358 C28.3615773,29.9367473 26.4292091,30.9119521 24.4754718,31.1854385 L24.4754718,21.5636222 C24.0847244,21.4724601 23.4810501,21.4218996 23.0040635,21.4218996 C22.4583908,21.4218996 21.741766,21.4877814 21.3510186,21.6042238 L21.3510186,31.090446 C18.2258022,30.4622701 15.8309477,28.168662 15.8309477,25.4345647 C15.8309477,24.3965423 16.1972735,23.4228696 16.7940791,22.5778964 C18.0495079,20.8006183 20.4435992,19.5963591 23.177305,19.5963591 C25.5706331,19.5963591 27.770877,20.5141088 29.1445985,22.0707593 C29.2415222,22.1803071 29.3376827,22.2929191 29.4254483,22.4085954 L31.8157237,20.6045048 C30.1367307,18.4058891 27.2107039,16.9917273 24.4754718,16.6914286 L24.4754718,13.9197939 L32.2881312,13.9197939 L32.2881312,10.7835108 L13.5383592,10.7835108 L13.5383592,13.9197939 L21.3510186,13.9197939 Z" id="Fill-1"></path>
                        <path d="M22.9132452,0.0156565183 C10.2887447,0.0156565183 0.0178869986,10.325402 0.0178869986,22.9984679 C0.0178869986,35.6715337 10.2887447,45.9812792 22.9132452,45.9812792 C35.5385089,45.9812792 45.8093666,35.6715337 45.8093666,22.9984679 C45.8093666,10.325402 35.5385089,0.0156565183 22.9132452,0.0156565183 L22.9132452,0.0156565183 Z M22.9132452,43.0142972 C11.918131,43.0142972 2.97291457,34.0352121 2.97291457,22.9984679 C2.97291457,11.9617237 11.918131,2.98263856 22.9132452,2.98263856 C33.9091226,2.98263856 42.8535759,11.9617237 42.8535759,22.9984679 C42.8535759,34.0352121 33.9091226,43.0142972 22.9132452,43.0142972 L22.9132452,43.0142972 Z" id="Fill-2"></path>
                    </g>
                </g>
            </g>
        </g>
    </g>
</svg>