<?xml version="1.0" encoding="UTF-8"?>
<svg width="155px" height="15px" viewBox="0 0 155 15" version="1.1" xmlns="http://www.w3.org/2000/svg" xmlns:xlink="http://www.w3.org/1999/xlink">
    <!-- Generator: Sketch 41.2 (35397) - http://www.bohemiancoding.com/sketch -->
    <title>Wordmark</title>
    <desc>Created with Sketch.</desc>
    <defs></defs>
    <g id="Desktop" stroke="none" stroke-width="1" fill="none" fill-rule="evenodd">
        <g id="Logged-Out" transform="translate(-640.000000, -27.000000)" fill="#232E39">
            <g id="Group" transform="translate(77.000000, 27.000000)">
                <path d="M607.682049,8.77916305 C607.682049,11.1934329 606.882796,12.7297864 604.827574,12.7663663 C602.582054,12.6932066 601.668622,11.1934329 601.668622,8.74258321 L601.668622,0.18289923 L597.672357,0.18289923 L597.672357,8.96206228 C597.672357,12.9126857 600.412653,14.9245772 604.218619,14.9245772 C608.100706,14.9245772 610.498465,12.8761058 610.498465,8.92548244 L610.498465,0.18289923 L607.64399,0.18289923 L607.64399,8.77916305 L607.682049,8.77916305 L607.682049,8.77916305 Z M563,2.56058922 L568.556711,2.56058922 L568.556711,14.741678 L572.514917,14.741678 L572.514917,2.56058922 L578.071628,2.56058922 L578.071628,0.18289923 L563,0.18289923 L563,2.56058922 L563,2.56058922 Z M698.682713,8.77916305 C698.682713,11.1934329 697.88346,12.7297864 695.828238,12.7663663 C693.582718,12.6932066 692.669286,11.1934329 692.669286,8.74258321 L692.669286,0.18289923 L688.71108,0.18289923 L688.71108,8.96206228 C688.71108,12.9126857 691.451376,14.9245772 695.257343,14.9245772 C699.139429,14.9245772 701.537188,12.8761058 701.537188,8.92548244 L701.537188,0.18289923 L698.682713,0.18289923 L698.682713,8.77916305 L698.682713,8.77916305 Z M625.151436,7.64518782 L618.529054,0.18289923 L614.685028,0.18289923 L614.685028,14.741678 L617.539503,14.741678 L617.539503,5.01143891 L626.179047,14.741678 L627.967852,14.741678 L627.967852,0.18289923 L625.113377,0.18289923 L625.113377,7.64518782 L625.151436,7.64518782 L625.151436,7.64518782 Z M646.198432,0.18289923 L642.658883,0.18289923 L636.379038,6.5112126 L636.379038,0.18289923 L632.420833,0.18289923 L632.420833,14.741678 L636.379038,14.741678 L636.379038,9.73023905 L638.053664,8.08414598 L642.773062,14.741678 L647.416342,14.741678 L640.79396,5.45039706 L646.198432,0.18289923 L646.198432,0.18289923 Z M679.61482,0.18289923 L675.656615,0.18289923 L675.656615,14.741678 L686.808097,14.741678 L686.808097,12.363988 L679.61482,12.363988 L679.61482,0.18289923 L679.61482,0.18289923 Z M713.335685,7.24280952 L713.335685,7.20622967 C715.428967,7.02333044 717.33195,5.92593506 717.33195,3.7311443 C717.33195,1.20713492 714.781952,0.18289923 711.699119,0.18289923 L705.076737,0.18289923 L705.076737,14.741678 L711.965537,14.741678 C715.276728,14.741678 717.940905,13.6808624 717.940905,10.8276344 C717.940905,8.23046536 715.467026,7.35254906 713.335685,7.24280952 L713.335685,7.24280952 Z M708.996883,1.97531169 L710.671508,1.97531169 C712.498372,1.97531169 713.335685,2.56058922 713.335685,4.17010245 C713.335685,5.77961568 712.460313,6.40147306 710.671508,6.40147306 L708.996883,6.40147306 L708.996883,1.97531169 L708.996883,1.97531169 Z M710.861807,12.9492655 L709.034943,12.9492655 L709.034943,8.12072582 L710.861807,8.12072582 C712.955088,8.12072582 713.982699,8.8157429 713.982699,10.5715755 C713.982699,12.363988 712.917029,12.9492655 710.861807,12.9492655 L710.861807,12.9492655 Z M592.68654,10.7178949 C592.534302,10.0594577 592.267884,9.43760028 591.849228,8.92548244 C591.506691,8.48652428 590.973855,8.12072582 590.40296,7.93782659 C592.344003,7.42570875 593.790271,6.0356746 593.790271,4.09694276 C593.790271,1.28029461 591.126094,0.18289923 588.005201,0.18289923 L581.002223,0.18289923 L581.002223,14.741678 L584.960428,14.741678 L584.960428,8.74258321 L585.8358,8.74258321 C587.01565,8.74258321 588.652216,9.03522197 589.33729,11.7055507 C589.755946,13.1687446 589.946244,13.9735012 591.240273,14.7050981 C592.838779,15.5098547 595.236538,14.4124593 595.236538,14.4124593 L594.97012,13.2053244 C593.599972,13.3516438 592.952958,11.9981895 592.68654,10.7178949 L592.68654,10.7178949 Z M586.863411,6.80385137 L584.960428,6.80385137 L584.960428,1.93873184 L586.863411,1.93873184 C588.994753,1.93873184 590.022364,2.85322799 590.022364,4.35300168 C590.022364,5.96251491 588.956693,6.80385137 586.863411,6.80385137 L586.863411,6.80385137 Z M666.979011,1.86557215 C668.920054,1.86557215 670.176023,2.99954738 671.089455,4.38958153 L672.459603,2.92638768 C671.393932,1.24371477 669.30065,0 666.408115,0 C661.879015,0 658.225287,3.07270707 658.225287,7.68176767 C658.225287,12.2908283 661.879015,14.9977369 666.217817,14.9977369 C669.262591,14.9977369 671.355872,13.5711229 672.421543,11.88845 L671.089455,10.7910546 C670.176023,12.1810887 668.920054,13.0224252 666.940951,13.0224252 C664.467072,12.9858453 662.602149,10.937374 662.602149,7.42570875 C662.640208,3.80430399 664.238714,1.86557215 666.979011,1.86557215 L666.979011,1.86557215 Z" id="Wordmark"></path>
            </g>
        </g>
    </g>
</svg>